<svg xmlns="http://www.w3.org/2000/svg" xmlns:xlink="http://www.w3.org/1999/xlink" width="28" height="28" version="1.1" viewBox="0 0 28 28"><title>bat</title><desc>Created with Sketch.</desc><defs><linearGradient id="linearGradient-1" x1="50%" x2="50%" y1="0%" y2="100%"><stop offset="0%" stop-color="#000"/><stop offset="97.834%" stop-color="#000" stop-opacity="0"/></linearGradient></defs><g id="Wallet" fill="none" fill-rule="evenodd" stroke="none" stroke-width="1"><g id="Desktop" transform="translate(-413.000000, -320.000000)"><g id="bat" transform="translate(413.000000, 320.000000)"><g id="BAT"><path id="Fill-256" fill="#672893" d="M27.9119463,13.9746746 C27.9119463,21.6682667 21.67519,27.9050229 13.981598,27.9050229 C6.28814527,27.9050229 0.0512497512,21.6682667 0.0512497512,13.9746746 C0.0512497512,6.28108259 6.28814527,0.0443263682 13.981598,0.0443263682 C21.67519,0.0443263682 27.9119463,6.28108259 27.9119463,13.9746746"/><path id="Fill-258" fill="#FFF" d="M26.6004736,13.9753572 C26.6004736,16.7920736 25.6768915,19.3942627 24.1152995,21.4949592 C21.816792,24.5888896 18.1322149,26.5934667 13.9809711,26.5934667 C13.175797,26.5934667 12.3887323,26.5182428 11.6253493,26.3733672 C5.78156816,25.2700836 1.36286169,20.1381433 1.36286169,13.9753572 C1.36286169,7.00600398 7.01161791,1.35585473 13.9809711,1.35585473 C20.9503244,1.35585473 26.6004736,7.00600398 26.6004736,13.9753572"/><polygon id="Fill-260" fill="#FF4F00" points="14.01 11.119 10.548 17.037 10.636 17.037 5.418 19.991 5.363 19.991 14.01 5.209"/><polygon id="Fill-262" fill="#672893" points="22.656 19.992 5.418 19.992 10.636 17.037 17.445 17.037 22.653 19.987"/><polygon id="Fill-264" fill="#A01A63" points="17.445 17.037 17.471 17.037 14.01 11.119 14.01 5.209 22.653 19.987"/><polygon id="Fill-266" fill="#FFF" points="14.01 11.119 10.548 17.037 17.471 17.037"/><path id="Fill-269" fill="url(#linearGradient-1)" d="M5.41793035,19.992 L11.6252935,26.3733532 C12.3888159,26.5182289 13.1758806,26.5934527 13.9809154,26.5934527 C18.1322985,26.5934527 21.8167363,24.5888756 24.1152438,21.4950846 L22.6525572,19.992 L5.41793035,19.992 Z" opacity=".1"/></g></g></g></g></svg>